<?xml version="1.0" encoding="UTF-8" standalone="no"?>
<!-- Created with Inkscape (http://www.inkscape.org/) -->

<svg
   xmlns:dc="http://purl.org/dc/elements/1.1/"
   xmlns:cc="http://creativecommons.org/ns#"
   xmlns:rdf="http://www.w3.org/1999/02/22-rdf-syntax-ns#"
   xmlns:svg="http://www.w3.org/2000/svg"
   xmlns="http://www.w3.org/2000/svg"
   xmlns:sodipodi="http://sodipodi.sourceforge.net/DTD/sodipodi-0.dtd"
   xmlns:inkscape="http://www.inkscape.org/namespaces/inkscape"
   width="403.67633mm"
   height="302.75723mm"
   viewBox="0 0 403.67633 302.75723"
   version="1.1"
   id="svg8"
   inkscape:version="0.92.4 (5da689c313, 2019-01-14)"
   sodipodi:docname="PID_I.svg">
  <defs
     id="defs2">
    <marker
       inkscape:stockid="Arrow1Send"
       orient="auto"
       refY="0"
       refX="0"
       id="Arrow1Send"
       style="overflow:visible"
       inkscape:isstock="true">
      <path
         id="path1234"
         d="M 0,0 5,-5 -12.5,0 5,5 Z"
         style="fill:#000000;fill-opacity:1;fill-rule:evenodd;stroke:#000000;stroke-width:1.00000003pt;stroke-opacity:1"
         transform="matrix(-0.2,0,0,-0.2,-1.2,0)"
         inkscape:connector-curvature="0" />
    </marker>
    <marker
       inkscape:stockid="Arrow1Sstart"
       orient="auto"
       refY="0"
       refX="0"
       id="Arrow1Sstart"
       style="overflow:visible"
       inkscape:isstock="true">
      <path
         id="path1231"
         d="M 0,0 5,-5 -12.5,0 5,5 Z"
         style="fill:#000000;fill-opacity:1;fill-rule:evenodd;stroke:#000000;stroke-width:1.00000003pt;stroke-opacity:1"
         transform="matrix(0.2,0,0,0.2,1.2,0)"
         inkscape:connector-curvature="0" />
    </marker>
    <clipPath
       id="clipPath846"
       clipPathUnits="userSpaceOnUse">
      <path
         inkscape:connector-curvature="0"
         id="path844"
         d="M 3.81e-6,2.035e-5 H 560.00001 V 420.00002 H 3.81e-6 Z" />
    </clipPath>
  </defs>
  <sodipodi:namedview
     id="base"
     pagecolor="#ffffff"
     bordercolor="#666666"
     borderopacity="1.0"
     inkscape:pageopacity="0.0"
     inkscape:pageshadow="2"
     inkscape:zoom="0.49497475"
     inkscape:cx="978.10875"
     inkscape:cy="481.10771"
     inkscape:document-units="mm"
     inkscape:current-layer="layer1"
     showgrid="false"
     fit-margin-top="0"
     fit-margin-left="0"
     fit-margin-right="0"
     fit-margin-bottom="0"
     inkscape:window-width="1920"
     inkscape:window-height="1017"
     inkscape:window-x="-8"
     inkscape:window-y="-8"
     inkscape:window-maximized="1" />
  <metadata
     id="metadata5">
    <rdf:RDF>
      <cc:Work
         rdf:about="">
        <dc:format>image/svg+xml</dc:format>
        <dc:type
           rdf:resource="http://purl.org/dc/dcmitype/StillImage" />
        <dc:title></dc:title>
      </cc:Work>
    </rdf:RDF>
  </metadata>
  <g
     inkscape:label="レイヤー 1"
     inkscape:groupmode="layer"
     id="layer1"
     transform="translate(434.89718,-6.2403191)">
    <g
       transform="matrix(0.96113412,0,0,-0.96113412,-519.12884,562.30939)"
       inkscape:label="PID_discription"
       id="g836">
      <g
         transform="matrix(0.125,0,0,-0.125,0,842)"
         id="g838">
        <g
           transform="matrix(6,0,0,6,701.10221,2107.559)"
           id="g840">
          <g
             clip-path="url(#clipPath846)"
             id="g842">
            <path
               inkscape:connector-curvature="0"
               id="path848"
               style="fill:#ffffff;fill-opacity:1;fill-rule:nonzero;stroke:none"
               d="M 0,0 H 560 V 420 H 0 Z" />
          </g>
        </g>
        <g
           transform="matrix(6,0,0,6,701.10221,2107.559)"
           id="g850">
          <path
             inkscape:connector-curvature="0"
             id="path852"
             style="fill:#ffffff;fill-opacity:1;fill-rule:nonzero;stroke:none"
             d="M 0,0 H 560 V 420 H 0 Z" />
        </g>
        <g
           transform="matrix(6,0,0,6,701.10221,2107.559)"
           id="g854">
          <path
             inkscape:connector-curvature="0"
             id="path856"
             style="fill:#ffffff;fill-opacity:1;fill-rule:nonzero;stroke:none"
             d="M 73,374 H 507 V 31 H 73 Z" />
        </g>
        <g
           transform="matrix(6,0,0,6,701.10221,2107.559)"
           id="g858">
          <path
             inkscape:connector-curvature="0"
             id="path860"
             style="fill:none;stroke:#262626;stroke-width:0.66666698;stroke-linecap:square;stroke-linejoin:round;stroke-miterlimit:10;stroke-dasharray:none;stroke-opacity:1"
             d="M 73,374 H 507" />
        </g>
        <g
           transform="matrix(6,0,0,6,701.10221,2107.559)"
           id="g862">
          <path
             inkscape:connector-curvature="0"
             id="path864"
             style="fill:none;stroke:#262626;stroke-width:0.66666698;stroke-linecap:square;stroke-linejoin:round;stroke-miterlimit:10;stroke-dasharray:none;stroke-opacity:1"
             d="M 73,31 H 507" />
        </g>
        <g
           transform="matrix(6,0,0,6,701.10221,2107.559)"
           id="g866">
          <path
             inkscape:connector-curvature="0"
             id="path868"
             style="fill:none;stroke:#262626;stroke-width:0.66666698;stroke-linecap:square;stroke-linejoin:round;stroke-miterlimit:10;stroke-dasharray:none;stroke-opacity:1"
             d="m 73,374 v -4.34" />
        </g>
        <g
           transform="matrix(6,0,0,6,701.10221,2107.559)"
           id="g870">
          <path
             inkscape:connector-curvature="0"
             id="path872"
             style="fill:none;stroke:#262626;stroke-width:0.66666698;stroke-linecap:square;stroke-linejoin:round;stroke-miterlimit:10;stroke-dasharray:none;stroke-opacity:1"
             d="m 145.33333,374 v -4.34" />
        </g>
        <g
           transform="matrix(6,0,0,6,701.10221,2107.559)"
           id="g874">
          <path
             inkscape:connector-curvature="0"
             id="path876"
             style="fill:none;stroke:#262626;stroke-width:0.66666698;stroke-linecap:square;stroke-linejoin:round;stroke-miterlimit:10;stroke-dasharray:none;stroke-opacity:1"
             d="m 217.66667,374 v -4.34" />
        </g>
        <g
           transform="matrix(6,0,0,6,701.10221,2107.559)"
           id="g878">
          <path
             inkscape:connector-curvature="0"
             id="path880"
             style="fill:none;stroke:#262626;stroke-width:0.66666698;stroke-linecap:square;stroke-linejoin:round;stroke-miterlimit:10;stroke-dasharray:none;stroke-opacity:1"
             d="m 290,374 v -4.34" />
        </g>
        <g
           transform="matrix(6,0,0,6,701.10221,2107.559)"
           id="g882">
          <path
             inkscape:connector-curvature="0"
             id="path884"
             style="fill:none;stroke:#262626;stroke-width:0.66666698;stroke-linecap:square;stroke-linejoin:round;stroke-miterlimit:10;stroke-dasharray:none;stroke-opacity:1"
             d="m 362.33334,374 v -4.34" />
        </g>
        <g
           transform="matrix(6,0,0,6,701.10221,2107.559)"
           id="g886">
          <path
             inkscape:connector-curvature="0"
             id="path888"
             style="fill:none;stroke:#262626;stroke-width:0.66666698;stroke-linecap:square;stroke-linejoin:round;stroke-miterlimit:10;stroke-dasharray:none;stroke-opacity:1"
             d="m 434.66666,374 v -4.34" />
        </g>
        <g
           transform="matrix(6,0,0,6,701.10221,2107.559)"
           id="g890">
          <path
             inkscape:connector-curvature="0"
             id="path892"
             style="fill:none;stroke:#262626;stroke-width:0.66666698;stroke-linecap:square;stroke-linejoin:round;stroke-miterlimit:10;stroke-dasharray:none;stroke-opacity:1"
             d="m 507,374 v -4.34" />
        </g>
        <g
           transform="matrix(6,0,0,6,701.10221,2107.559)"
           id="g894">
          <path
             inkscape:connector-curvature="0"
             id="path896"
             style="fill:none;stroke:#262626;stroke-width:0.66666698;stroke-linecap:square;stroke-linejoin:round;stroke-miterlimit:10;stroke-dasharray:none;stroke-opacity:1"
             d="m 73,31 v 4.34" />
        </g>
        <g
           transform="matrix(6,0,0,6,701.10221,2107.559)"
           id="g898">
          <path
             inkscape:connector-curvature="0"
             id="path900"
             style="fill:none;stroke:#262626;stroke-width:0.66666698;stroke-linecap:square;stroke-linejoin:round;stroke-miterlimit:10;stroke-dasharray:none;stroke-opacity:1"
             d="m 145.33333,31 v 4.34" />
        </g>
        <g
           transform="matrix(6,0,0,6,701.10221,2107.559)"
           id="g902">
          <path
             inkscape:connector-curvature="0"
             id="path904"
             style="fill:none;stroke:#262626;stroke-width:0.66666698;stroke-linecap:square;stroke-linejoin:round;stroke-miterlimit:10;stroke-dasharray:none;stroke-opacity:1"
             d="m 217.66667,31 v 4.34" />
        </g>
        <g
           transform="matrix(6,0,0,6,701.10221,2107.559)"
           id="g906">
          <path
             inkscape:connector-curvature="0"
             id="path908"
             style="fill:none;stroke:#262626;stroke-width:0.66666698;stroke-linecap:square;stroke-linejoin:round;stroke-miterlimit:10;stroke-dasharray:none;stroke-opacity:1"
             d="m 290,31 v 4.34" />
        </g>
        <g
           transform="matrix(6,0,0,6,701.10221,2107.559)"
           id="g910">
          <path
             inkscape:connector-curvature="0"
             id="path912"
             style="fill:none;stroke:#262626;stroke-width:0.66666698;stroke-linecap:square;stroke-linejoin:round;stroke-miterlimit:10;stroke-dasharray:none;stroke-opacity:1"
             d="m 362.33334,31 v 4.34" />
        </g>
        <g
           transform="matrix(6,0,0,6,701.10221,2107.559)"
           id="g914">
          <path
             inkscape:connector-curvature="0"
             id="path916"
             style="fill:none;stroke:#262626;stroke-width:0.66666698;stroke-linecap:square;stroke-linejoin:round;stroke-miterlimit:10;stroke-dasharray:none;stroke-opacity:1"
             d="m 434.66666,31 v 4.34" />
        </g>
        <g
           transform="matrix(6,0,0,6,701.10221,2107.559)"
           id="g918">
          <path
             inkscape:connector-curvature="0"
             id="path920"
             style="fill:none;stroke:#262626;stroke-width:0.66666698;stroke-linecap:square;stroke-linejoin:round;stroke-miterlimit:10;stroke-dasharray:none;stroke-opacity:1"
             d="m 507,31 v 4.34" />
        </g>
        <g
           transform="matrix(6,0,0,6,1139.1022,4381.959)"
           id="g922">
          <path
             inkscape:connector-curvature="0"
             id="path924"
             style="fill:#262626;fill-opacity:1;fill-rule:nonzero;stroke:none"
             d="m -2.578125,6.359375 c 0,-1.375 0.3125,-2.375 0.9375,-3 0.4375,-0.4375 0.984375,-0.65625 1.640625,-0.65625 0.65625,0 1.203125,0.21875 1.640625,0.65625 0.625,0.625 0.9375,1.625 0.9375,3 v 0.9375 c 0,1.34375 -0.3125,2.328125 -0.9375,2.953125 C 1.203125,10.6875 0.65625,10.90625 0,10.90625 c -0.65625,0 -1.203125,-0.21875 -1.640625,-0.65625 -0.625,-0.625 -0.9375,-1.609375 -0.9375,-2.953125 z M -0.84375,3.96875 C -1.25,4.375 -1.453125,5.140625 -1.453125,6.265625 V 7.34375 c 0,1.09375 0.21875,1.859375 0.65625,2.296875 0.25,0.25 0.515625,0.375 0.796875,0.375 0.3125,0 0.59375,-0.125 0.84375,-0.375 C 1.25,9.234375 1.453125,8.46875 1.453125,7.34375 V 6.265625 C 1.453125,5.140625 1.25,4.375 0.84375,3.96875 0.59375,3.71875 0.3125,3.59375 0,3.59375 c -0.3125,0 -0.59375,0.125 -0.84375,0.375 z" />
        </g>
        <g
           transform="matrix(6,0,0,6,1573.1022,4381.959)"
           id="g926">
          <path
             inkscape:connector-curvature="0"
             id="path928"
             style="fill:#262626;fill-opacity:1;fill-rule:nonzero;stroke:none"
             d="m -1.828125,2.84375 h 4.03125 V 3.734375 H -0.9375 V 3.875 c -0.03125,0.59375 -0.078125,1.171875 -0.140625,1.734375 -0.03125,0.09375 -0.046875,0.1875 -0.046875,0.28125 0.40625,-0.375 0.84375,-0.5625 1.3125,-0.5625 0.625,0 1.140625,0.203125 1.546875,0.609375 0.4375,0.4375 0.65625,1.078125 0.65625,1.921875 0,1.0625 -0.28125,1.875 -0.84375,2.4375 -0.4375,0.4375 -0.984375,0.65625 -1.640625,0.65625 -0.625,0 -1.140625,-0.203125 -1.546875,-0.609375 -0.40625,-0.40625 -0.65625,-1.015625 -0.75,-1.828125 H -1.3125 c 0.0625,0.59375 0.21875,1.015625 0.46875,1.265625 0.1875,0.1875 0.421875,0.28125 0.703125,0.28125 0.375,0 0.671875,-0.109375 0.890625,-0.328125 C 1.09375,9.390625 1.265625,8.8125 1.265625,8 1.265625,7.21875 1.125,6.6875 0.84375,6.40625 0.65625,6.21875 0.4375,6.125 0.1875,6.125 c -0.375,0 -0.703125,0.140625 -0.984375,0.421875 -0.1875,0.1875 -0.3125,0.328125 -0.375,0.421875 h -0.9375 C -2.078125,6.84375 -2.0625,6.734375 -2.0625,6.640625 L -1.828125,3.03125 Z" />
        </g>
        <g
           transform="matrix(6,0,0,6,2007.1022,4381.959)"
           id="g930">
          <path
             inkscape:connector-curvature="0"
             id="path932"
             style="fill:#262626;fill-opacity:1;fill-rule:nonzero;stroke:none"
             d="M -2.8125,2.703125 H -2.25 V 10.8125 H -3.328125 V 4.578125 h -1.40625 v -0.5625 H -4.3125 c 0.4375,0 0.78125,-0.125 1.03125,-0.375 0.28125,-0.28125 0.4375,-0.59375 0.46875,-0.9375 z m 3.234375,3.65625 c 0,-1.375 0.3125,-2.375 0.9375,-3 C 1.796875,2.921875 2.34375,2.703125 3,2.703125 c 0.65625,0 1.203125,0.21875 1.640625,0.65625 0.625,0.625 0.9375,1.625 0.9375,3 v 0.9375 c 0,1.34375 -0.3125,2.328125 -0.9375,2.953125 C 4.203125,10.6875 3.65625,10.90625 3,10.90625 2.34375,10.90625 1.796875,10.6875 1.359375,10.25 0.734375,9.625 0.421875,8.640625 0.421875,7.296875 Z M 2.15625,3.96875 C 1.75,4.375 1.546875,5.140625 1.546875,6.265625 V 7.34375 c 0,1.09375 0.21875,1.859375 0.65625,2.296875 0.25,0.25 0.515625,0.375 0.796875,0.375 0.3125,0 0.59375,-0.125 0.84375,-0.375 C 4.25,9.234375 4.453125,8.46875 4.453125,7.34375 V 6.265625 C 4.453125,5.140625 4.25,4.375 3.84375,3.96875 3.59375,3.71875 3.3125,3.59375 3,3.59375 c -0.3125,0 -0.59375,0.125 -0.84375,0.375 z" />
        </g>
        <g
           transform="matrix(6,0,0,6,2441.1022,4381.959)"
           id="g934">
          <path
             inkscape:connector-curvature="0"
             id="path936"
             style="fill:#262626;fill-opacity:1;fill-rule:nonzero;stroke:none"
             d="M -2.8125,2.703125 H -2.25 V 10.8125 H -3.328125 V 4.578125 h -1.40625 v -0.5625 H -4.3125 c 0.4375,0 0.78125,-0.125 1.03125,-0.375 C -3,3.359375 -2.84375,3.046875 -2.8125,2.703125 Z M 1.171875,2.84375 h 4.03125 V 3.734375 H 2.0625 V 3.875 C 2.03125,4.46875 1.984375,5.046875 1.921875,5.609375 1.890625,5.703125 1.875,5.796875 1.875,5.890625 c 0.40625,-0.375 0.84375,-0.5625 1.3125,-0.5625 0.625,0 1.140625,0.203125 1.546875,0.609375 0.4375,0.4375 0.65625,1.078125 0.65625,1.921875 0,1.0625 -0.28125,1.875 -0.84375,2.4375 -0.4375,0.4375 -0.984375,0.65625 -1.640625,0.65625 -0.625,0 -1.140625,-0.203125 -1.546875,-0.609375 -0.40625,-0.40625 -0.65625,-1.015625 -0.75,-1.828125 H 1.6875 C 1.75,9.109375 1.90625,9.53125 2.15625,9.78125 2.34375,9.96875 2.578125,10.0625 2.859375,10.0625 3.234375,10.0625 3.53125,9.953125 3.75,9.734375 4.09375,9.390625 4.265625,8.8125 4.265625,8 4.265625,7.21875 4.125,6.6875 3.84375,6.40625 3.65625,6.21875 3.4375,6.125 3.1875,6.125 c -0.375,0 -0.703125,0.140625 -0.984375,0.421875 -0.1875,0.1875 -0.3125,0.328125 -0.375,0.421875 h -0.9375 C 0.921875,6.84375 0.9375,6.734375 0.9375,6.640625 L 1.171875,3.03125 Z" />
        </g>
        <g
           transform="matrix(6,0,0,6,2875.1023,4381.959)"
           id="g938">
          <path
             inkscape:connector-curvature="0"
             id="path940"
             style="fill:#262626;fill-opacity:1;fill-rule:nonzero;stroke:none"
             d="m -5.203125,5.5625 c 0,-0.96875 0.25,-1.703125 0.75,-2.203125 C -4.046875,2.953125 -3.5625,2.75 -3,2.75 c 0.6875,0 1.234375,0.203125 1.640625,0.609375 0.40625,0.40625 0.609375,0.90625 0.609375,1.5 0,0.75 -0.234375,1.40625 -0.703125,1.96875 C -1.890625,7.359375 -2.34375,7.875 -2.8125,8.375 c -0.25,0.28125 -0.5,0.5625 -0.75,0.84375 -0.21875,0.25 -0.40625,0.5 -0.5625,0.75 h 3.515625 v 0.890625 h -4.78125 V 10.0625 C -5.328125,9.75 -5.0625,9.3125 -4.59375,8.75 -3.8125,7.90625 -3.171875,7.203125 -2.671875,6.640625 -2.140625,6.078125 -1.875,5.484375 -1.875,4.859375 c 0,-0.375 -0.125,-0.6875 -0.375,-0.9375 -0.1875,-0.1875 -0.421875,-0.28125 -0.703125,-0.28125 -0.25,0 -0.46875,0.09375 -0.65625,0.28125 C -3.953125,4.265625 -4.125,4.8125 -4.125,5.5625 Z m 5.625,0.796875 c 0,-1.375 0.3125,-2.375 0.9375,-3 C 1.796875,2.921875 2.34375,2.703125 3,2.703125 c 0.65625,0 1.203125,0.21875 1.640625,0.65625 0.625,0.625 0.9375,1.625 0.9375,3 v 0.9375 c 0,1.34375 -0.3125,2.328125 -0.9375,2.953125 C 4.203125,10.6875 3.65625,10.90625 3,10.90625 2.34375,10.90625 1.796875,10.6875 1.359375,10.25 0.734375,9.625 0.421875,8.640625 0.421875,7.296875 Z M 2.15625,3.96875 C 1.75,4.375 1.546875,5.140625 1.546875,6.265625 V 7.34375 c 0,1.09375 0.21875,1.859375 0.65625,2.296875 0.25,0.25 0.515625,0.375 0.796875,0.375 0.3125,0 0.59375,-0.125 0.84375,-0.375 C 4.25,9.234375 4.453125,8.46875 4.453125,7.34375 V 6.265625 C 4.453125,5.140625 4.25,4.375 3.84375,3.96875 3.59375,3.71875 3.3125,3.59375 3,3.59375 c -0.3125,0 -0.59375,0.125 -0.84375,0.375 z" />
        </g>
        <g
           transform="matrix(6,0,0,6,3309.1021,4381.959)"
           id="g942">
          <path
             inkscape:connector-curvature="0"
             id="path944"
             style="fill:#262626;fill-opacity:1;fill-rule:nonzero;stroke:none"
             d="m -5.203125,5.5625 c 0,-0.96875 0.25,-1.703125 0.75,-2.203125 C -4.046875,2.953125 -3.5625,2.75 -3,2.75 c 0.6875,0 1.234375,0.203125 1.640625,0.609375 0.40625,0.40625 0.609375,0.90625 0.609375,1.5 0,0.75 -0.234375,1.40625 -0.703125,1.96875 C -1.890625,7.359375 -2.34375,7.875 -2.8125,8.375 c -0.25,0.28125 -0.5,0.5625 -0.75,0.84375 -0.21875,0.25 -0.40625,0.5 -0.5625,0.75 h 3.515625 v 0.890625 h -4.78125 V 10.0625 C -5.328125,9.75 -5.0625,9.3125 -4.59375,8.75 -3.8125,7.90625 -3.171875,7.203125 -2.671875,6.640625 -2.140625,6.078125 -1.875,5.484375 -1.875,4.859375 c 0,-0.375 -0.125,-0.6875 -0.375,-0.9375 -0.1875,-0.1875 -0.421875,-0.28125 -0.703125,-0.28125 -0.25,0 -0.46875,0.09375 -0.65625,0.28125 C -3.953125,4.265625 -4.125,4.8125 -4.125,5.5625 Z m 6.375,-2.71875 h 4.03125 V 3.734375 H 2.0625 V 3.875 C 2.03125,4.46875 1.984375,5.046875 1.921875,5.609375 1.890625,5.703125 1.875,5.796875 1.875,5.890625 c 0.40625,-0.375 0.84375,-0.5625 1.3125,-0.5625 0.625,0 1.140625,0.203125 1.546875,0.609375 0.4375,0.4375 0.65625,1.078125 0.65625,1.921875 0,1.0625 -0.28125,1.875 -0.84375,2.4375 -0.4375,0.4375 -0.984375,0.65625 -1.640625,0.65625 -0.625,0 -1.140625,-0.203125 -1.546875,-0.609375 -0.40625,-0.40625 -0.65625,-1.015625 -0.75,-1.828125 H 1.6875 C 1.75,9.109375 1.90625,9.53125 2.15625,9.78125 2.34375,9.96875 2.578125,10.0625 2.859375,10.0625 3.234375,10.0625 3.53125,9.953125 3.75,9.734375 4.09375,9.390625 4.265625,8.8125 4.265625,8 4.265625,7.21875 4.125,6.6875 3.84375,6.40625 3.65625,6.21875 3.4375,6.125 3.1875,6.125 c -0.375,0 -0.703125,0.140625 -0.984375,0.421875 -0.1875,0.1875 -0.3125,0.328125 -0.375,0.421875 h -0.9375 C 0.921875,6.84375 0.9375,6.734375 0.9375,6.640625 L 1.171875,3.03125 Z" />
        </g>
        <g
           transform="matrix(6,0,0,6,3743.1022,4381.959)"
           id="g946">
          <path
             inkscape:connector-curvature="0"
             id="path948"
             style="fill:#262626;fill-opacity:1;fill-rule:nonzero;stroke:none"
             d="m -5.203125,5.140625 c 0,-0.71875 0.234375,-1.3125 0.703125,-1.78125 C -4.09375,2.953125 -3.59375,2.75 -3,2.75 c 0.6875,0 1.234375,0.203125 1.640625,0.609375 0.375,0.375 0.5625,0.875 0.5625,1.5 0,0.625 -0.15625,1.09375 -0.46875,1.40625 -0.21875,0.21875 -0.453125,0.34375 -0.703125,0.375 0.3125,0.09375 0.578125,0.25 0.796875,0.46875 0.375,0.375 0.5625,0.875 0.5625,1.5 0,0.6875 -0.21875,1.25 -0.65625,1.6875 -0.4375,0.4375 -1.046875,0.65625 -1.828125,0.65625 -0.65625,0 -1.203125,-0.21875 -1.640625,-0.65625 C -5.171875,9.859375 -5.390625,9.34375 -5.390625,8.75 V 8.375 H -4.3125 v 0.328125 c 0,0.40625 0.140625,0.75 0.421875,1.03125 0.21875,0.21875 0.484375,0.328125 0.796875,0.328125 0.40625,0 0.734375,-0.125 0.984375,-0.375 0.25,-0.25 0.375,-0.640625 0.375,-1.171875 0,-0.4375 -0.125,-0.78125 -0.375,-1.03125 -0.25,-0.25 -0.53125,-0.375 -0.84375,-0.375 h -0.375 V 6.3125 h 0.28125 C -2.765625,6.3125 -2.5,6.1875 -2.25,5.9375 -2,5.6875 -1.875,5.328125 -1.875,4.859375 -1.875,4.453125 -2,4.125 -2.25,3.875 -2.4375,3.6875 -2.6875,3.59375 -3,3.59375 c -0.28125,0 -0.53125,0.109375 -0.75,0.328125 -0.25,0.25 -0.390625,0.65625 -0.421875,1.21875 z m 5.625,1.21875 c 0,-1.375 0.3125,-2.375 0.9375,-3 C 1.796875,2.921875 2.34375,2.703125 3,2.703125 c 0.65625,0 1.203125,0.21875 1.640625,0.65625 0.625,0.625 0.9375,1.625 0.9375,3 v 0.9375 c 0,1.34375 -0.3125,2.328125 -0.9375,2.953125 C 4.203125,10.6875 3.65625,10.90625 3,10.90625 2.34375,10.90625 1.796875,10.6875 1.359375,10.25 0.734375,9.625 0.421875,8.640625 0.421875,7.296875 Z M 2.15625,3.96875 C 1.75,4.375 1.546875,5.140625 1.546875,6.265625 V 7.34375 c 0,1.09375 0.21875,1.859375 0.65625,2.296875 0.25,0.25 0.515625,0.375 0.796875,0.375 0.3125,0 0.59375,-0.125 0.84375,-0.375 C 4.25,9.234375 4.453125,8.46875 4.453125,7.34375 V 6.265625 C 4.453125,5.140625 4.25,4.375 3.84375,3.96875 3.59375,3.71875 3.3125,3.59375 3,3.59375 c -0.3125,0 -0.59375,0.125 -0.84375,0.375 z" />
        </g>
        <g
           transform="matrix(6,0,0,6,701.10221,2107.559)"
           id="g950">
          <path
             inkscape:connector-curvature="0"
             id="path952"
             style="fill:none;stroke:#262626;stroke-width:0.66666698;stroke-linecap:square;stroke-linejoin:round;stroke-miterlimit:10;stroke-dasharray:none;stroke-opacity:1"
             d="M 73,374 V 31" />
        </g>
        <g
           transform="matrix(6,0,0,6,701.10221,2107.559)"
           id="g954">
          <path
             inkscape:connector-curvature="0"
             id="path956"
             style="fill:none;stroke:#262626;stroke-width:0.66666698;stroke-linecap:square;stroke-linejoin:round;stroke-miterlimit:10;stroke-dasharray:none;stroke-opacity:1"
             d="M 507,374 V 31" />
        </g>
        <g
           transform="matrix(6,0,0,6,701.10221,2107.559)"
           id="g958">
          <path
             inkscape:connector-curvature="0"
             id="path960"
             style="fill:none;stroke:#262626;stroke-width:0.66666698;stroke-linecap:square;stroke-linejoin:round;stroke-miterlimit:10;stroke-dasharray:none;stroke-opacity:1"
             d="m 73,374 h 4.340004" />
        </g>
        <g
           transform="matrix(6,0,0,6,701.10221,2107.559)"
           id="g962">
          <path
             inkscape:connector-curvature="0"
             id="path964"
             style="fill:none;stroke:#262626;stroke-width:0.66666698;stroke-linecap:square;stroke-linejoin:round;stroke-miterlimit:10;stroke-dasharray:none;stroke-opacity:1"
             d="m 73,335.88889 h 4.340004" />
        </g>
        <g
           transform="matrix(6,0,0,6,701.10221,2107.559)"
           id="g966">
          <path
             inkscape:connector-curvature="0"
             id="path968"
             style="fill:none;stroke:#262626;stroke-width:0.66666698;stroke-linecap:square;stroke-linejoin:round;stroke-miterlimit:10;stroke-dasharray:none;stroke-opacity:1"
             d="m 73,297.77777 h 4.340004" />
        </g>
        <g
           transform="matrix(6,0,0,6,701.10221,2107.559)"
           id="g970">
          <path
             inkscape:connector-curvature="0"
             id="path972"
             style="fill:none;stroke:#262626;stroke-width:0.66666698;stroke-linecap:square;stroke-linejoin:round;stroke-miterlimit:10;stroke-dasharray:none;stroke-opacity:1"
             d="m 73,259.66666 h 4.340004" />
        </g>
        <g
           transform="matrix(6,0,0,6,701.10221,2107.559)"
           id="g974">
          <path
             inkscape:connector-curvature="0"
             id="path976"
             style="fill:none;stroke:#262626;stroke-width:0.66666698;stroke-linecap:square;stroke-linejoin:round;stroke-miterlimit:10;stroke-dasharray:none;stroke-opacity:1"
             d="m 73,221.55556 h 4.340004" />
        </g>
        <g
           transform="matrix(6,0,0,6,701.10221,2107.559)"
           id="g978">
          <path
             inkscape:connector-curvature="0"
             id="path980"
             style="fill:none;stroke:#262626;stroke-width:0.66666698;stroke-linecap:square;stroke-linejoin:round;stroke-miterlimit:10;stroke-dasharray:none;stroke-opacity:1"
             d="m 73,183.44444 h 4.340004" />
        </g>
        <g
           transform="matrix(6,0,0,6,701.10221,2107.559)"
           id="g982">
          <path
             inkscape:connector-curvature="0"
             id="path984"
             style="fill:none;stroke:#262626;stroke-width:0.66666698;stroke-linecap:square;stroke-linejoin:round;stroke-miterlimit:10;stroke-dasharray:none;stroke-opacity:1"
             d="m 73,145.33333 h 4.340004" />
        </g>
        <g
           transform="matrix(6,0,0,6,701.10221,2107.559)"
           id="g986">
          <path
             inkscape:connector-curvature="0"
             id="path988"
             style="fill:none;stroke:#262626;stroke-width:0.66666698;stroke-linecap:square;stroke-linejoin:round;stroke-miterlimit:10;stroke-dasharray:none;stroke-opacity:1"
             d="m 73,107.22222 h 4.340004" />
        </g>
        <g
           transform="matrix(6,0,0,6,701.10221,2107.559)"
           id="g990">
          <path
             inkscape:connector-curvature="0"
             id="path992"
             style="fill:none;stroke:#262626;stroke-width:0.66666698;stroke-linecap:square;stroke-linejoin:round;stroke-miterlimit:10;stroke-dasharray:none;stroke-opacity:1"
             d="m 73,69.111115 h 4.340004" />
        </g>
        <g
           transform="matrix(6,0,0,6,701.10221,2107.559)"
           id="g994">
          <path
             inkscape:connector-curvature="0"
             id="path996"
             style="fill:none;stroke:#262626;stroke-width:0.66666698;stroke-linecap:square;stroke-linejoin:round;stroke-miterlimit:10;stroke-dasharray:none;stroke-opacity:1"
             d="m 73,31 h 4.340004" />
        </g>
        <g
           transform="matrix(6,0,0,6,701.10221,2107.559)"
           id="g998">
          <path
             inkscape:connector-curvature="0"
             id="path1000"
             style="fill:none;stroke:#262626;stroke-width:0.66666698;stroke-linecap:square;stroke-linejoin:round;stroke-miterlimit:10;stroke-dasharray:none;stroke-opacity:1"
             d="m 507,374 h -4.34" />
        </g>
        <g
           transform="matrix(6,0,0,6,701.10221,2107.559)"
           id="g1002">
          <path
             inkscape:connector-curvature="0"
             id="path1004"
             style="fill:none;stroke:#262626;stroke-width:0.66666698;stroke-linecap:square;stroke-linejoin:round;stroke-miterlimit:10;stroke-dasharray:none;stroke-opacity:1"
             d="m 507,335.88889 h -4.34" />
        </g>
        <g
           transform="matrix(6,0,0,6,701.10221,2107.559)"
           id="g1006">
          <path
             inkscape:connector-curvature="0"
             id="path1008"
             style="fill:none;stroke:#262626;stroke-width:0.66666698;stroke-linecap:square;stroke-linejoin:round;stroke-miterlimit:10;stroke-dasharray:none;stroke-opacity:1"
             d="m 507,297.77777 h -4.34" />
        </g>
        <g
           transform="matrix(6,0,0,6,701.10221,2107.559)"
           id="g1010">
          <path
             inkscape:connector-curvature="0"
             id="path1012"
             style="fill:none;stroke:#262626;stroke-width:0.66666698;stroke-linecap:square;stroke-linejoin:round;stroke-miterlimit:10;stroke-dasharray:none;stroke-opacity:1"
             d="m 507,259.66666 h -4.34" />
        </g>
        <g
           transform="matrix(6,0,0,6,701.10221,2107.559)"
           id="g1014">
          <path
             inkscape:connector-curvature="0"
             id="path1016"
             style="fill:none;stroke:#262626;stroke-width:0.66666698;stroke-linecap:square;stroke-linejoin:round;stroke-miterlimit:10;stroke-dasharray:none;stroke-opacity:1"
             d="m 507,221.55556 h -4.34" />
        </g>
        <g
           transform="matrix(6,0,0,6,701.10221,2107.559)"
           id="g1018">
          <path
             inkscape:connector-curvature="0"
             id="path1020"
             style="fill:none;stroke:#262626;stroke-width:0.66666698;stroke-linecap:square;stroke-linejoin:round;stroke-miterlimit:10;stroke-dasharray:none;stroke-opacity:1"
             d="m 507,183.44444 h -4.34" />
        </g>
        <g
           transform="matrix(6,0,0,6,701.10221,2107.559)"
           id="g1022">
          <path
             inkscape:connector-curvature="0"
             id="path1024"
             style="fill:none;stroke:#262626;stroke-width:0.66666698;stroke-linecap:square;stroke-linejoin:round;stroke-miterlimit:10;stroke-dasharray:none;stroke-opacity:1"
             d="m 507,145.33333 h -4.34" />
        </g>
        <g
           transform="matrix(6,0,0,6,701.10221,2107.559)"
           id="g1026">
          <path
             inkscape:connector-curvature="0"
             id="path1028"
             style="fill:none;stroke:#262626;stroke-width:0.66666698;stroke-linecap:square;stroke-linejoin:round;stroke-miterlimit:10;stroke-dasharray:none;stroke-opacity:1"
             d="m 507,107.22222 h -4.34" />
        </g>
        <g
           transform="matrix(6,0,0,6,701.10221,2107.559)"
           id="g1030">
          <path
             inkscape:connector-curvature="0"
             id="path1032"
             style="fill:none;stroke:#262626;stroke-width:0.66666698;stroke-linecap:square;stroke-linejoin:round;stroke-miterlimit:10;stroke-dasharray:none;stroke-opacity:1"
             d="m 507,69.111115 h -4.34" />
        </g>
        <g
           transform="matrix(6,0,0,6,701.10221,2107.559)"
           id="g1034">
          <path
             inkscape:connector-curvature="0"
             id="path1036"
             style="fill:none;stroke:#262626;stroke-width:0.66666698;stroke-linecap:square;stroke-linejoin:round;stroke-miterlimit:10;stroke-dasharray:none;stroke-opacity:1"
             d="m 507,31 h -4.34" />
        </g>
        <g
           transform="matrix(6,0,0,6,1108.7022,4351.559)"
           id="g1038">
          <path
             inkscape:connector-curvature="0"
             id="path1040"
             style="fill:#262626;fill-opacity:1;fill-rule:nonzero;stroke:none"
             d="m -11.671875,-0.140625 h 5.34375 v 0.75 h -5.34375 z m 6.84375,-3.515625 h 4.03125 v 0.890625 H -3.9375 V -2.625 c -0.03125,0.59375 -0.078125,1.171875 -0.140625,1.734375 -0.03125,0.09375 -0.046875,0.1875 -0.046875,0.28125 0.40625,-0.375 0.84375,-0.5625 1.3125,-0.5625 0.625,0 1.140625,0.203125 1.546875,0.609375 0.4375,0.4375 0.65625,1.078125 0.65625,1.921875 0,1.0625 -0.28125,1.875 -0.84375,2.4375 -0.4375,0.4375 -0.984375,0.65625 -1.640625,0.65625 -0.625,0 -1.140625,-0.203125 -1.546875,-0.609375 -0.40625,-0.40625 -0.65625,-1.015625 -0.75,-1.828125 H -4.3125 c 0.0625,0.59375 0.21875,1.015625 0.46875,1.265625 0.1875,0.1875 0.421875,0.28125 0.703125,0.28125 0.375,0 0.671875,-0.109375 0.890625,-0.328125 C -1.90625,2.890625 -1.734375,2.3125 -1.734375,1.5 -1.734375,0.71875 -1.875,0.1875 -2.15625,-0.09375 -2.34375,-0.28125 -2.5625,-0.375 -2.8125,-0.375 c -0.375,0 -0.703125,0.140625 -0.984375,0.421875 -0.1875,0.1875 -0.3125,0.328125 -0.375,0.421875 h -0.9375 C -5.078125,0.34375 -5.0625,0.234375 -5.0625,0.140625 l 0.234375,-3.609375 z" />
        </g>
        <g
           transform="matrix(6,0,0,6,1108.7022,4122.8923)"
           id="g1042">
          <path
             inkscape:connector-curvature="0"
             id="path1044"
             style="fill:#262626;fill-opacity:1;fill-rule:nonzero;stroke:none"
             d="m -11.671875,-0.140625 h 5.34375 v 0.75 h -5.34375 z M -2.4375,-3.75 h 1.078125 V 1.40625 H -0.375 v 0.890625 h -0.984375 v 2.0625 H -2.4375 v -2.0625 h -3.140625 v -0.9375 z m 0,1.734375 -2.109375,3.421875 H -2.4375 Z" />
        </g>
        <g
           transform="matrix(6,0,0,6,1108.7022,3894.2256)"
           id="g1046">
          <path
             inkscape:connector-curvature="0"
             id="path1048"
             style="fill:#262626;fill-opacity:1;fill-rule:nonzero;stroke:none"
             d="m -11.671875,-0.140625 h 5.34375 v 0.75 h -5.34375 z m 6.46875,-1.21875 c 0,-0.71875 0.234375,-1.3125 0.703125,-1.78125 C -4.09375,-3.546875 -3.59375,-3.75 -3,-3.75 c 0.6875,0 1.234375,0.203125 1.640625,0.609375 0.375,0.375 0.5625,0.875 0.5625,1.5 0,0.625 -0.15625,1.09375 -0.46875,1.40625 -0.21875,0.21875 -0.453125,0.34375 -0.703125,0.375 0.3125,0.09375 0.578125,0.25 0.796875,0.46875 0.375,0.375 0.5625,0.875 0.5625,1.5 0,0.6875 -0.21875,1.25 -0.65625,1.6875 -0.4375,0.4375 -1.046875,0.65625 -1.828125,0.65625 -0.65625,0 -1.203125,-0.21875 -1.640625,-0.65625 C -5.171875,3.359375 -5.390625,2.84375 -5.390625,2.25 V 1.875 H -4.3125 v 0.328125 c 0,0.40625 0.140625,0.75 0.421875,1.03125 0.21875,0.21875 0.484375,0.328125 0.796875,0.328125 0.40625,0 0.734375,-0.125 0.984375,-0.375 0.25,-0.25 0.375,-0.640625 0.375,-1.171875 0,-0.4375 -0.125,-0.78125 -0.375,-1.03125 -0.25,-0.25 -0.53125,-0.375 -0.84375,-0.375 h -0.375 V -0.1875 h 0.28125 c 0.28125,0 0.546875,-0.125 0.796875,-0.375 0.25,-0.25 0.375,-0.609375 0.375,-1.078125 C -1.875,-2.046875 -2,-2.375 -2.25,-2.625 -2.4375,-2.8125 -2.6875,-2.90625 -3,-2.90625 c -0.28125,0 -0.53125,0.109375 -0.75,0.328125 -0.25,0.25 -0.390625,0.65625 -0.421875,1.21875 z" />
        </g>
        <g
           transform="matrix(6,0,0,6,1108.7022,3665.5589)"
           id="g1050">
          <path
             inkscape:connector-curvature="0"
             id="path1052"
             style="fill:#262626;fill-opacity:1;fill-rule:nonzero;stroke:none"
             d="m -11.671875,-0.140625 h 5.34375 v 0.75 h -5.34375 z m 6.46875,-0.796875 c 0,-0.96875 0.25,-1.703125 0.75,-2.203125 C -4.046875,-3.546875 -3.5625,-3.75 -3,-3.75 c 0.6875,0 1.234375,0.203125 1.640625,0.609375 0.40625,0.40625 0.609375,0.90625 0.609375,1.5 0,0.75 -0.234375,1.40625 -0.703125,1.96875 C -1.890625,0.859375 -2.34375,1.375 -2.8125,1.875 c -0.25,0.28125 -0.5,0.5625 -0.75,0.84375 -0.21875,0.25 -0.40625,0.5 -0.5625,0.75 h 3.515625 v 0.890625 h -4.78125 V 3.5625 C -5.328125,3.25 -5.0625,2.8125 -4.59375,2.25 -3.8125,1.40625 -3.171875,0.703125 -2.671875,0.140625 c 0.53125,-0.5625 0.796875,-1.15625 0.796875,-1.78125 0,-0.375 -0.125,-0.6875 -0.375,-0.9375 -0.1875,-0.1875 -0.421875,-0.28125 -0.703125,-0.28125 -0.25,0 -0.46875,0.09375 -0.65625,0.28125 C -3.953125,-2.234375 -4.125,-1.6875 -4.125,-0.9375 Z" />
        </g>
        <g
           transform="matrix(6,0,0,6,1108.7022,3436.8923)"
           id="g1054">
          <path
             inkscape:connector-curvature="0"
             id="path1056"
             style="fill:#262626;fill-opacity:1;fill-rule:nonzero;stroke:none"
             d="m -11.671875,-0.140625 h 5.34375 v 0.75 h -5.34375 z M -2.8125,-3.796875 H -2.25 V 4.3125 h -1.078125 v -6.234375 h -1.40625 v -0.5625 H -4.3125 c 0.4375,0 0.78125,-0.125 1.03125,-0.375 0.28125,-0.28125 0.4375,-0.59375 0.46875,-0.9375 z" />
        </g>
        <g
           transform="matrix(6,0,0,6,1108.7022,3208.2256)"
           id="g1058">
          <path
             inkscape:connector-curvature="0"
             id="path1060"
             style="fill:#262626;fill-opacity:1;fill-rule:nonzero;stroke:none"
             d="m -5.578125,-0.140625 c 0,-1.375 0.3125,-2.375 0.9375,-3 0.4375,-0.4375 0.984375,-0.65625 1.640625,-0.65625 0.65625,0 1.203125,0.21875 1.640625,0.65625 0.625,0.625 0.9375,1.625 0.9375,3 v 0.9375 c 0,1.34375 -0.3125,2.328125 -0.9375,2.953125 C -1.796875,4.1875 -2.34375,4.40625 -3,4.40625 c -0.65625,0 -1.203125,-0.21875 -1.640625,-0.65625 -0.625,-0.625 -0.9375,-1.609375 -0.9375,-2.953125 z M -3.84375,-2.53125 C -4.25,-2.125 -4.453125,-1.359375 -4.453125,-0.234375 V 0.84375 c 0,1.09375 0.21875,1.859375 0.65625,2.296875 0.25,0.25 0.515625,0.375 0.796875,0.375 0.3125,0 0.59375,-0.125 0.84375,-0.375 C -1.75,2.734375 -1.546875,1.96875 -1.546875,0.84375 v -1.078125 c 0,-1.125 -0.203125,-1.890625 -0.609375,-2.296875 -0.25,-0.25 -0.53125,-0.375 -0.84375,-0.375 -0.3125,0 -0.59375,0.125 -0.84375,0.375 z" />
        </g>
        <g
           transform="matrix(6,0,0,6,1108.7022,2979.5589)"
           id="g1062">
          <path
             inkscape:connector-curvature="0"
             id="path1064"
             style="fill:#262626;fill-opacity:1;fill-rule:nonzero;stroke:none"
             d="M -2.8125,-3.796875 H -2.25 V 4.3125 h -1.078125 v -6.234375 h -1.40625 v -0.5625 H -4.3125 c 0.4375,0 0.78125,-0.125 1.03125,-0.375 0.28125,-0.28125 0.4375,-0.59375 0.46875,-0.9375 z" />
        </g>
        <g
           transform="matrix(6,0,0,6,1108.7022,2750.8923)"
           id="g1066">
          <path
             inkscape:connector-curvature="0"
             id="path1068"
             style="fill:#262626;fill-opacity:1;fill-rule:nonzero;stroke:none"
             d="m -5.203125,-0.9375 c 0,-0.96875 0.25,-1.703125 0.75,-2.203125 C -4.046875,-3.546875 -3.5625,-3.75 -3,-3.75 c 0.6875,0 1.234375,0.203125 1.640625,0.609375 0.40625,0.40625 0.609375,0.90625 0.609375,1.5 0,0.75 -0.234375,1.40625 -0.703125,1.96875 C -1.890625,0.859375 -2.34375,1.375 -2.8125,1.875 c -0.25,0.28125 -0.5,0.5625 -0.75,0.84375 -0.21875,0.25 -0.40625,0.5 -0.5625,0.75 h 3.515625 v 0.890625 h -4.78125 V 3.5625 C -5.328125,3.25 -5.0625,2.8125 -4.59375,2.25 -3.8125,1.40625 -3.171875,0.703125 -2.671875,0.140625 c 0.53125,-0.5625 0.796875,-1.15625 0.796875,-1.78125 0,-0.375 -0.125,-0.6875 -0.375,-0.9375 -0.1875,-0.1875 -0.421875,-0.28125 -0.703125,-0.28125 -0.25,0 -0.46875,0.09375 -0.65625,0.28125 C -3.953125,-2.234375 -4.125,-1.6875 -4.125,-0.9375 Z" />
        </g>
        <g
           transform="matrix(6,0,0,6,1108.7022,2522.2256)"
           id="g1070">
          <path
             inkscape:connector-curvature="0"
             id="path1072"
             style="fill:#262626;fill-opacity:1;fill-rule:nonzero;stroke:none"
             d="m -5.203125,-1.359375 c 0,-0.71875 0.234375,-1.3125 0.703125,-1.78125 C -4.09375,-3.546875 -3.59375,-3.75 -3,-3.75 c 0.6875,0 1.234375,0.203125 1.640625,0.609375 0.375,0.375 0.5625,0.875 0.5625,1.5 0,0.625 -0.15625,1.09375 -0.46875,1.40625 -0.21875,0.21875 -0.453125,0.34375 -0.703125,0.375 0.3125,0.09375 0.578125,0.25 0.796875,0.46875 0.375,0.375 0.5625,0.875 0.5625,1.5 0,0.6875 -0.21875,1.25 -0.65625,1.6875 -0.4375,0.4375 -1.046875,0.65625 -1.828125,0.65625 -0.65625,0 -1.203125,-0.21875 -1.640625,-0.65625 C -5.171875,3.359375 -5.390625,2.84375 -5.390625,2.25 V 1.875 H -4.3125 v 0.328125 c 0,0.40625 0.140625,0.75 0.421875,1.03125 0.21875,0.21875 0.484375,0.328125 0.796875,0.328125 0.40625,0 0.734375,-0.125 0.984375,-0.375 0.25,-0.25 0.375,-0.640625 0.375,-1.171875 0,-0.4375 -0.125,-0.78125 -0.375,-1.03125 -0.25,-0.25 -0.53125,-0.375 -0.84375,-0.375 h -0.375 V -0.1875 h 0.28125 c 0.28125,0 0.546875,-0.125 0.796875,-0.375 0.25,-0.25 0.375,-0.609375 0.375,-1.078125 C -1.875,-2.046875 -2,-2.375 -2.25,-2.625 -2.4375,-2.8125 -2.6875,-2.90625 -3,-2.90625 c -0.28125,0 -0.53125,0.109375 -0.75,0.328125 -0.25,0.25 -0.390625,0.65625 -0.421875,1.21875 z" />
        </g>
        <g
           transform="matrix(6,0,0,6,1108.7022,2293.559)"
           id="g1074">
          <path
             inkscape:connector-curvature="0"
             id="path1076"
             style="fill:#262626;fill-opacity:1;fill-rule:nonzero;stroke:none"
             d="m -2.4375,-3.75 h 1.078125 V 1.40625 H -0.375 v 0.890625 h -0.984375 v 2.0625 H -2.4375 v -2.0625 h -3.140625 v -0.9375 z m 0,1.734375 -2.109375,3.421875 H -2.4375 Z" />
        </g>
        <g
           transform="matrix(6,0,0,6,701.10221,2107.559)"
           id="g1078">
          <path
             inkscape:connector-curvature="0"
             id="path1080"
             style="fill:none;stroke:#ff0000;stroke-width:2.66666698;stroke-linecap:butt;stroke-linejoin:round;stroke-miterlimit:10;stroke-dasharray:none;stroke-opacity:1"
             d="M 73,107.22222 H 507.05173" />
        </g>
        <g
           transform="matrix(6,0,0,6,701.10221,2107.559)"
           id="g1082">
          <path
             inkscape:connector-curvature="0"
             id="path1084"
             style="fill:none;stroke:#0072bd;stroke-width:0.66666698;stroke-linecap:butt;stroke-linejoin:round;stroke-miterlimit:10;stroke-dasharray:none;stroke-opacity:1"
             d="m 73,374 h 1.446663 l 1.44667,-1.90555 1.446671,-5.37369 1.446663,-8.49514 1.446663,-10.90973 1.44667,-12.64981 1.446663,-13.82856 1.446671,-14.55969 1.446663,-14.93985 1.44667,-15.04727 1.446663,-14.94452 1.446671,-14.68114 1.446663,-14.29646 1.44667,-13.82167 1.446663,-13.28143 1.44667,-12.69531 1.446663,-12.07874 1.446671,-11.44399 1.446659,-10.80067 1.44667,-10.15643 1.44667,-9.51728 1.44667,-8.88778 1.44666,-8.27169 1.44667,-7.67167 1.44666,-7.08994 1.44667,-6.528 1.44667,-5.987035 1.44667,-5.467781 1.44666,-4.970779 1.44667,-4.496277 1.44666,-4.044319 1.44667,-3.614868 1.44667,-3.207688 1.44667,-2.822479 1.44666,-2.458874 1.44667,-2.116356 1.44666,-1.794464 1.44668,-1.492622 1.44666,-1.210236 1.44667,-0.946693 1.44667,-0.701351 1.44665,-0.473564 1.44668,-0.262661 1.44667,-0.06799 1.44667,0.111145 1.44665,0.275398 1.44667,0.425427 1.44667,0.561901 1.44667,0.68547 1.44666,0.796769 1.44667,0.896434 1.44667,0.985104 1.44667,1.063328 1.44666,1.131756 1.44667,1.190918 1.44667,1.24139 1.44665,1.283714 1.44667,1.318413 1.44667,1.345985 1.44667,1.366921 1.44666,1.381706 1.44667,1.39077 1.44667,1.394562 1.44667,1.393501 1.44667,1.387962 1.44666,1.378357 1.44667,1.365021 1.44667,1.348312 1.44667,1.328576 1.44665,1.306099 1.44667,1.281173 1.44667,1.254105 1.44667,1.225136 1.44666,1.194526 1.44667,1.162491 1.44667,1.129288 1.44666,1.095077 1.44667,1.060074 1.44667,1.02446 1.44667,0.988388 1.44667,0.952034 1.44665,0.915512 1.44667,0.878983 1.44666,0.842537 1.44667,0.80632 1.44669,0.770401 1.44665,0.734886 1.44667,0.699867 1.44666,0.6654 1.44667,0.63156 1.44667,0.59842 1.44667,0.56601 1.44667,0.5344 1.44665,0.50359 1.44667,0.47365 1.44667,0.4446 1.44666,0.41646 1.44667,0.38925 1.44667,0.36297 1.44667,0.33764 1.44667,0.31329 1.44666,0.28986 1.44667,0.26742 1.44665,0.24591 1.44667,0.22536 1.44669,0.20573 1.44665,0.18702 1.44668,0.16924 1.44665,0.15233 1.44667,0.13633 1.44667,0.12114 1.44666,0.10683 1.44668,0.0933 1.44666,0.0806 1.44667,0.0686 1.44667,0.0574 1.44665,0.047 1.44668,0.0372 1.44665,0.0281 1.44669,0.0196 1.44667,0.0118 1.44665,0.005 1.44667,-0.002 1.44666,-0.008 1.44667,-0.0138 1.44667,-0.0189 1.44665,-0.0235 1.44669,-0.0277 1.44666,-0.0314 1.44668,-0.0348 1.44666,-0.0377 1.44665,-0.0403 1.44669,-0.0425 1.44665,-0.0445 1.44666,-0.0461 1.44668,-0.0474 1.44666,-0.0485 1.44668,-0.0493 1.44666,-0.0499 1.44666,-0.0503 1.44668,-0.0505 1.44666,-0.0505 1.44665,-0.0504 1.44669,-0.0501 1.44665,-0.0496 1.44669,-0.049 1.44665,-0.0484 1.44666,-0.0476 1.44665,-0.0467 1.44669,-0.0457 1.44669,-0.0447 1.44665,-0.0436 1.44666,-0.0425 1.44665,-0.0413 1.44669,-0.04 1.44665,-0.0388 1.44669,-0.0375 1.44665,-0.0362 1.44666,-0.0349 1.44668,-0.0336 1.44666,-0.0322 1.44669,-0.0309 1.44662,-0.0296 1.44669,-0.0283 1.44668,-0.027 1.44666,-0.0257 1.44668,-0.0245 1.44663,-0.0232 1.44668,-0.022 1.44666,-0.0208 1.44668,-0.0197 1.44669,-0.0186 1.44663,-0.0175 1.44668,-0.0164 1.44666,-0.0154 1.44668,-0.0144 1.44666,-0.0134 1.44665,-0.0125 1.44669,-0.0116 1.44665,-0.0108 1.44669,-0.01 1.44665,-0.009 1.44666,-0.008 1.44669,-0.008 1.44665,-0.007 1.44669,-0.006 1.44665,-0.006 1.44666,-0.005 1.44665,-0.005 1.44669,-0.004 1.44665,-0.004 1.44669,-0.003 1.44666,-0.003 1.44665,-0.002 1.44669,-0.002 1.44665,-10e-4 1.44669,-0.001 1.44665,-8e-4 1.44666,-5.1e-4 1.44668,-2.5e-4 1.44666,1e-5 1.44668,2.4e-4 1.44663,4.5e-4 1.44669,6.2e-4 1.44668,8.1e-4 1.44666,9.6e-4 1.44668,10e-4 1.44663,0.001 1.44668,0.001 1.44666,10e-4 1.44668,0.002 1.44669,0.002 1.44662,0.002 1.44669,0.002 1.44666,0.002 1.44668,0.002 1.44666,0.002 1.44665,0.002 1.44669,0.002 1.44665,0.002 1.44669,0.002 1.44665,0.002 1.44666,0.002 1.44665,0.002 1.44669,0.002 1.44669,0.002 1.44665,0.002 1.44666,0.002 1.44665,0.002 1.44669,0.002 1.44665,0.002 1.44669,0.001 1.44665,0.001 1.44666,10e-4 1.44668,0.001 1.44666,0.001 1.44669,10e-4 1.44662,0.001 1.44669,0.001 1.44668,10e-4 1.44666,0.001 1.44668,0.001 1.44663,9.9e-4 1.44668,9.4e-4 1.44666,9e-4 1.44668,8.5e-4 1.44669,8.2e-4 1.44663,7.6e-4 1.44668,7.4e-4 1.44666,6.7e-4 1.44668,6.5e-4 1.44666,6.1e-4 1.44665,5.7e-4 1.44669,5.3e-4 1.44665,5e-4 1.44669,4.6e-4 1.44665,4.3e-4 1.44666,4e-4 1.44669,3.6e-4 1.44665,3.5e-4 1.44669,3.1e-4 1.44665,2.8e-4 1.44666,2.6e-4 1.44665,2.4e-4 1.44669,2.1e-4 1.44665,1.9e-4 1.44669,1.8e-4 1.44666,1.4e-4 1.44665,1.4e-4 1.44669,1.1e-4 1.44665,1e-4 1.44669,9e-5 1.44665,7e-5 1.44666,6e-5 1.44668,4e-5 1.44666,3e-5 1.44668,2e-5 1.44663,1e-5 h 1.44669 1.44668 l 1.44666,-2e-5 1.44668,-2e-5 1.44663,-2e-5 1.44668,-3e-5 1.44666,-5e-5 1.44668,-4e-5 1.44669,-5e-5 1.44662,-5e-5 1.44669,-5e-5 1.44666,-5e-5 1.44668,-7e-5 1.44666,-6e-5 1.44665,-7e-5 1.44669,-6e-5 1.44665,-7e-5 1.44669,-6e-5 1.44665,-6e-5 1.44666,-7e-5 1.44665,-6e-5 1.44669,-7e-5 h 0.0517" />
        </g>
      </g>
    </g>
    <path
       style="opacity:0.40100002;fill:#ff00c8;fill-opacity:1;stroke:none;stroke-width:1;stroke-linecap:butt;stroke-linejoin:miter;stroke-miterlimit:4;stroke-dasharray:none;stroke-opacity:1"
       d="M -382.27509,275.83844 V 83.53152 h 27.21427 l -8.31547,51.40476 -6.04762,56.69643 -7.55952,76.91815 z"
       id="path826"
       inkscape:connector-curvature="0"
       sodipodi:nodetypes="ccccccc" />
    <path
       style="opacity:0.4;fill:#ff00c8;fill-opacity:1;stroke:none;stroke-width:1;stroke-linecap:butt;stroke-linejoin:miter;stroke-miterlimit:4;stroke-dasharray:none;stroke-opacity:1"
       d="m -270.47676,83.718915 -84.58407,-0.187397 84.58407,0.187397 -15.50163,-3.741771 -9.35444,-4.075861 -13.0962,-9.287616 -15.07387,-16.151458 -13.02128,-6.073042 -7.29982,3.716069 -6.62137,11.890546 -5.74939,23.535736 z"
       id="path1211"
       inkscape:connector-curvature="0"
       sodipodi:nodetypes="cccccccccccc" />
    <path
       style="fill:none;stroke:#000000;stroke-width:1;stroke-linecap:butt;stroke-linejoin:miter;stroke-miterlimit:4;stroke-dasharray:none;stroke-opacity:1"
       d="M -345.77602,51.692751 V 83.632438"
       id="path1213"
       inkscape:connector-curvature="0" />
    <path
       style="fill:none;stroke:#000000;stroke-width:1;stroke-linecap:butt;stroke-linejoin:miter;stroke-miterlimit:4;stroke-dasharray:none;stroke-opacity:1"
       d="M -342.64753,47.797677 V 83.254463"
       id="path1215"
       inkscape:connector-curvature="0" />
    <path
       style="fill:none;stroke:#000000;stroke-width:0.85584283;stroke-linecap:butt;stroke-linejoin:miter;stroke-miterlimit:4;stroke-dasharray:none;stroke-opacity:1;marker-start:url(#Arrow1Sstart);marker-end:url(#Arrow1Send)"
       d="m -348.01015,87.362411 h 7.26316"
       id="path1217"
       inkscape:connector-curvature="0" />
    <text
       xml:space="preserve"
       style="font-style:normal;font-variant:normal;font-weight:normal;font-stretch:normal;font-size:14.11111069px;line-height:40;font-family:'Times New Roman';-inkscape-font-specification:'Times New Roman, Normal';font-variant-ligatures:normal;font-variant-caps:normal;font-variant-numeric:normal;font-feature-settings:normal;text-align:start;letter-spacing:0px;word-spacing:0px;writing-mode:lr-tb;text-anchor:start;fill:#000000;fill-opacity:1;stroke:none;stroke-width:0.26458332"
       x="-349.85583"
       y="101.75961"
       id="text2039"><tspan
         sodipodi:role="line"
         id="tspan2037"
         x="-349.85583"
         y="101.75961"
         style="stroke-width:0.26458332">dt</tspan></text>
    <text
       xml:space="preserve"
       style="font-style:normal;font-variant:normal;font-weight:normal;font-stretch:normal;font-size:14.11111069px;line-height:40;font-family:'Times New Roman';-inkscape-font-specification:'Times New Roman, Normal';font-variant-ligatures:normal;font-variant-caps:normal;font-variant-numeric:normal;font-feature-settings:normal;text-align:start;letter-spacing:0px;word-spacing:0px;writing-mode:lr-tb;text-anchor:start;fill:#000000;fill-opacity:1;stroke:none;stroke-width:0.26458332"
       x="-340.90228"
       y="70.088165"
       id="text2043"><tspan
         sodipodi:role="line"
         id="tspan2041"
         x="-340.90228"
         y="70.088165"
         style="stroke-width:0.26458332">e</tspan></text>
  </g>
</svg>
